<?xml version="1.0" encoding="utf-8"?>
<!-- Generator: Adobe Illustrator 27.0.0, SVG Export Plug-In . SVG Version: 6.00 Build 0)  -->
<svg version="1.1" id="Capa_1" xmlns="http://www.w3.org/2000/svg" xmlns:xlink="http://www.w3.org/1999/xlink" x="0px" y="0px"
	 viewBox="0 0 120 120" style="enable-background:new 0 0 120 120;" xml:space="preserve">
<style type="text/css">
	.st0{fill:#418991;}
</style>
<g>
	<path class="st0" d="M106.1,99.44c-3.68,0-6.67-2.99-6.67-6.67V62.08c0-3.68,2.99-6.67,6.67-6.67s6.67,2.99,6.67,6.67v30.69
		C112.77,96.45,109.78,99.44,106.1,99.44z M87.66,99.44c-3.68,0-6.67-2.99-6.67-6.67V46.63c0-3.68,2.99-6.67,6.67-6.67
		s6.67,2.99,6.67,6.67v46.14C94.33,96.45,91.34,99.44,87.66,99.44z M69.22,99.44c-3.68,0-6.67-2.99-6.67-6.67v-21.4
		c0-3.68,2.99-6.67,6.67-6.67s6.67,2.99,6.67,6.67v21.4C75.89,96.45,72.9,99.44,69.22,99.44z M50.78,99.44
		c-3.68,0-6.67-2.99-6.67-6.67v-37.8c0-3.68,2.99-6.67,6.67-6.67s6.67,2.99,6.67,6.67v37.8C57.45,96.45,54.47,99.44,50.78,99.44z
		 M32.34,99.44c-3.68,0-6.67-2.99-6.67-6.67V27.24c0-3.68,2.99-6.67,6.67-6.67c3.68,0,6.67,2.99,6.67,6.67v65.53
		C39.01,96.45,36.03,99.44,32.34,99.44z M13.9,99.44c-3.68,0-6.67-2.99-6.67-6.67V37.48c0-3.68,2.99-6.67,6.67-6.67
		s6.67,2.99,6.67,6.67v55.28C20.57,96.45,17.59,99.44,13.9,99.44z"/>
</g>
</svg>
